<svg version="1.1" viewBox="0.0 0.0 960.0 540.0" fill="none" stroke="none" stroke-linecap="square" stroke-miterlimit="10" xmlns:xlink="http://www.w3.org/1999/xlink" xmlns="http://www.w3.org/2000/svg"><clipPath id="g24e7a8be1a0_0_15.0"><path d="m0 0l960.0 0l0 540.0l-960.0 0l0 -540.0z" clip-rule="nonzero"/></clipPath><g clip-path="url(#g24e7a8be1a0_0_15.0)"><path fill="#000000" d="m0 0l960.0 0l0 540.0l-960.0 0z" fill-rule="evenodd"/><path fill="#000000" fill-opacity="0.0" d="m0 16.0l960.0 0l0 540.0l-960.0 0z" fill-rule="evenodd"/><path fill="#ffffff" d="m66.875 38.858l0 70.125l74.0 0l0 -70.125l40.125 0l0 182.75l-40.125 0l0 -78.875l-74.0 0l0 78.875l-40.25 0l0 -182.75l40.25 0zm169.25 50.375l30.0 90.625l0.5 0l28.875 -90.625l37.625 0l-56.25 151.5q-5.0 13.25 -15.375 20.375q-10.375 7.125 -26.875 7.125q-7.875 0 -13.3125 -0.375q-5.4375 -0.375 -11.1875 -1.0l0 -29.875q6.625 0.75 10.875 1.0q4.25 0.25 8.125 0.25q7.75 0 12.0 -4.75q4.25 -4.75 4.25 -11.875q0 -1.875 -0.25 -3.6875q-0.25 -1.8125 -1.375 -4.5625l-46.625 -124.125l39.0 0zm170.5 -3.5q29.375 0 46.9375 20.1875q17.5625 20.1875 17.5625 51.5625l-0.25 6.75l-95.5 0q0.75 17.125 8.9375 25.375q8.1875 8.25 23.4375 8.25q9.875 0 18.25 -5.0625q8.375 -5.0625 10.625 -12.1875l32.0 0q-7.375 22.5 -22.75 33.5625q-15.375 11.0625 -39.25 11.0625q-30.625 0 -49.125 -19.375q-18.5 -19.375 -18.5 -50.25q0 -29.625 18.9375 -49.75q18.9375 -20.125 48.6875 -20.125zm-31.25 55.5l59.125 0q-2.625 -14.625 -9.4375 -21.375q-6.8125 -6.75 -19.6875 -6.75q-13.25 0 -21.0 7.5q-7.75 7.5 -9.0 20.625zm181.375 -55.5q31.125 0 49.875 19.1875q18.75 19.1875 18.75 50.6875q0 31.625 -18.9375 50.625q-18.9375 19.0 -49.6875 19.0q-30.75 0 -49.5625 -19.125q-18.8125 -19.125 -18.8125 -50.5q0 -31.375 18.5 -50.625q18.5 -19.25 49.875 -19.25zm-32.0 69.875q0 20.875 8.5625 31.5625q8.5625 10.6875 23.4375 10.6875q15.5 0 23.875 -11.0625q8.375 -11.0625 8.375 -31.1875q0 -19.75 -8.125 -31.125q-8.125 -11.375 -24.375 -11.375q-14.625 0 -23.1875 10.5625q-8.5625 10.5625 -8.5625 31.9375zm200.0 -69.875q25.375 0 36.8125 12.8125q11.4375 12.8125 11.4375 40.3125l0 82.75l-36.375 0l0 -75.875q0 -15.5 -5.3125 -23.4375q-5.3125 -7.9375 -17.9375 -7.9375q-15.125 0 -21.6875 9.0q-6.5625 9.0 -6.5625 27.625l0 70.625l-36.25 0l0 -132.375l34.5 0l0 18.5l0.75 0q6.625 -10.625 17.25 -16.3125q10.625 -5.6875 23.375 -5.6875zm128.5 0q14.5 0 24.0 5.375q9.5 5.375 15.5 15.75l0.5 0l0 -17.625l34.5 0l0 125.0q0 26.625 -16.9375 42.0625q-16.9375 15.4375 -51.4375 15.4375q-23.375 0 -40.125 -11.1875q-16.75 -11.1875 -18.375 -31.3125l36.0 0q2.5 9.625 9.5 13.9375q7.0 4.3125 17.625 4.3125q14.0 0 21.625 -8.4375q7.625 -8.4375 7.625 -23.4375l0 -18.375l-0.5 0q-5.375 9.75 -15.8125 15.125q-10.4375 5.375 -23.9375 5.375q-26.75 0 -41.625 -17.75q-14.875 -17.75 -14.875 -48.75q0 -28.0 15.5625 -46.75q15.5625 -18.75 41.1875 -18.75zm-20.375 65.0q0 18.625 7.6875 29.125q7.6875 10.5 21.6875 10.5q14.375 0 22.6875 -10.5q8.3125 -10.5 8.3125 -26.25q0 -19.375 -7.875 -29.9375q-7.875 -10.5625 -23.25 -10.5625q-13.5 0 -21.375 10.25q-7.875 10.25 -7.875 27.375z" fill-rule="nonzero"/><path fill="#4a86e8" d="m88.5 282.49298q22.0 0 36.0 11.8125q14.0 11.8125 14.0 32.0625q0 14.125 -8.125 25.4375q-8.125 11.3125 -24.375 20.0625l23.625 29.0q2.25 -4.375 4.0 -9.875q1.75 -5.5 2.625 -12.0l31.5 0q-1.75 14.25 -6.3125 25.375q-4.5625 11.125 -11.4375 19.75l37.125 43.25l-44.5 0l-14.875 -18.125q-10.875 10.875 -23.5 16.3125q-12.625 5.4375 -27.875 5.4375q-25.625 0 -42.375 -14.9375q-16.75 -14.9375 -16.75 -39.8125q0 -16.25 10.25 -29.8125q10.25 -13.5625 30.625 -23.3125q-10.5 -12.5 -13.9375 -21.1875q-3.4375 -8.6875 -3.4375 -17.6875q0 -17.875 14.0625 -29.8125q14.0625 -11.9375 33.6875 -11.9375zm-14.75 40.5q0 5.75 2.625 11.25q2.625 5.5 11.75 16.125q10.375 -6.375 14.5 -12.125q4.125 -5.75 4.125 -13.875q0 -7.25 -4.9375 -12.375q-4.9375 -5.125 -11.8125 -5.125q-7.0 0 -11.625 4.75q-4.625 4.75 -4.625 11.375zm-22.0 94.0q0 9.625 7.9375 16.8125q7.9375 7.1875 18.1875 7.1875q8.0 0 15.25 -3.5q7.25 -3.5 15.5 -12.625l-31.25 -38.125q-12.375 5.25 -19.0 13.0q-6.625 7.75 -6.625 17.25z" fill-rule="nonzero"/><path fill="#ffffff" d="m313.81433 284.61798l0 126.375q0 29.375 -15.3125 45.0625q-15.3125 15.6875 -45.437515 15.6875q-26.625 0 -43.4375 -15.0625q-16.8125 -15.0625 -16.8125 -40.5625l0 -16.875l36.25 0l0 6.875q0 18.25 5.875 25.0q5.875 6.75 17.5 6.75q10.500015 0 15.875015 -5.6875q5.375 -5.6875 5.375 -22.6875l0 -124.875l40.125 0zm92.75 46.875q29.375 0 46.9375 20.1875q17.5625 20.1875 17.5625 51.5625l-0.25 6.75l-95.5 0q0.75 17.125 8.9375 25.375q8.1875 8.25 23.4375 8.25q9.875 0 18.25 -5.0625q8.375 -5.0625 10.625 -12.1875l32.0 0q-7.375 22.5 -22.75 33.5625q-15.375 11.0625 -39.25 11.0625q-30.625 0 -49.125 -19.375q-18.5 -19.375 -18.5 -50.25q0 -29.625 18.9375 -49.75q18.9375 -20.125 48.6875 -20.125zm-31.25 55.5l59.125 0q-2.625 -14.625 -9.4375 -21.375q-6.8125 -6.75 -19.6875 -6.75q-13.25 0 -21.0 7.5q-7.75 7.5 -9.0 20.625zm181.375 -55.5q31.125 0 49.875 19.1875q18.75 19.1875 18.75 50.6875q0 31.625 -18.9375 50.625q-18.9375 19.0 -49.6875 19.0q-30.75 0 -49.5625 -19.125q-18.8125 -19.125 -18.8125 -50.5q0 -31.375 18.5 -50.625q18.5 -19.25 49.875 -19.25zm-32.0 69.875q0 20.875 8.5625 31.5625q8.5625 10.6875 23.4375 10.6875q15.5 0 23.875 -11.0625q8.375 -11.0625 8.375 -31.1875q0 -19.75 -8.125 -31.125q-8.125 -11.375 -24.375 -11.375q-14.625 0 -23.1875 10.5625q-8.5625 10.5625 -8.5625 31.9375zm200.0 -69.875q25.375 0 36.8125 12.8125q11.4375 12.8125 11.4375 40.3125l0 82.75l-36.375 0l0 -75.875q0 -15.5 -5.3125 -23.4375q-5.3125 -7.9375 -17.9375 -7.9375q-15.125 0 -21.6875 9.0q-6.5625 9.0 -6.5625 27.625l0 70.625l-36.25 0l0 -132.375l34.5 0l0 18.5l0.75 0q6.625 -10.625 17.25 -16.3125q10.625 -5.6875 23.375 -5.6875zm128.5 0q14.5 0 24.0 5.375q9.5 5.375 15.5 15.75l0.5 0l0 -17.625l34.5 0l0 125.0q0 26.625 -16.9375 42.0625q-16.9375 15.4375 -51.4375 15.4375q-23.375 0 -40.125 -11.1875q-16.75 -11.1875 -18.375 -31.3125l36.0 0q2.5 9.625 9.5 13.9375q7.0 4.3125 17.625 4.3125q14.0 0 21.625 -8.4375q7.625 -8.4375 7.625 -23.4375l0 -18.375l-0.5 0q-5.375 9.75 -15.8125 15.125q-10.4375 5.375 -23.9375 5.375q-26.75 0 -41.625 -17.75q-14.875 -17.75 -14.875 -48.75q0 -28.0 15.5625 -46.75q15.5625 -18.75 41.1875 -18.75zm-20.375 65.0q0 18.625 7.6875 29.125q7.6875 10.5 21.6875 10.5q14.375 0 22.6875 -10.5q8.3125 -10.5 8.3125 -26.25q0 -19.375 -7.875 -29.9375q-7.875 -10.5625 -23.25 -10.5625q-13.5 0 -21.375 10.25q-7.875 10.25 -7.875 27.375z" fill-rule="nonzero"/></g></svg>